<?xml version="1.0" encoding="UTF-8" standalone="no"?>
<svg
   xmlns:dc="http://purl.org/dc/elements/1.1/"
   xmlns:cc="http://creativecommons.org/ns#"
   xmlns:rdf="http://www.w3.org/1999/02/22-rdf-syntax-ns#"
   xmlns:svg="http://www.w3.org/2000/svg"
   xmlns="http://www.w3.org/2000/svg"
   xmlns:sodipodi="http://sodipodi.sourceforge.net/DTD/sodipodi-0.dtd"
   xmlns:inkscape="http://www.inkscape.org/namespaces/inkscape"
   version="1.1"
   id="svg2"
   xml:space="preserve"
   width="302.13214"
   height="358.03265"
   viewBox="0 0 302.13214 358.03265"
   sodipodi:docname="placeholder-logo.svg"
   inkscape:version="1.0.1 (3bc2e813f5, 2020-09-07)"><metadata
     id="metadata8"><rdf:RDF><cc:Work
         rdf:about=""><dc:format>image/svg+xml</dc:format><dc:type
           rdf:resource="http://purl.org/dc/dcmitype/StillImage" /><dc:title /></cc:Work></rdf:RDF></metadata><defs
     id="defs6"><rect
       x="65.707619"
       y="241.34555"
       width="232.25494"
       height="246.59873"
       id="rect903" /><rect
       x="29.108299"
       y="239.12425"
       width="157.40203"
       height="166.24164"
       id="rect897" /></defs><sodipodi:namedview
     pagecolor="#ffffff"
     bordercolor="#666666"
     borderopacity="1"
     objecttolerance="10"
     gridtolerance="10"
     guidetolerance="10"
     inkscape:pageopacity="0"
     inkscape:pageshadow="2"
     inkscape:window-width="1920"
     inkscape:window-height="1136"
     id="namedview4"
     showgrid="false"
     inkscape:zoom="1.316804"
     inkscape:cx="153.1883"
     inkscape:cy="119.56678"
     inkscape:window-x="0"
     inkscape:window-y="27"
     inkscape:window-maximized="1"
     inkscape:current-layer="text901"
     inkscape:document-rotation="0" /><g
     id="g10"
     inkscape:groupmode="layer"
     inkscape:label="ink_ext_XXXXXX"
     transform="matrix(1.3333333,0,0,-1.3333333,-4.0109445e-5,364.16398)"><path
       d="m 113.503,273.082 c 36.889,0.001 73.778,0.001 110.668,0.001 0.332,0 0.668,-0.037 0.993,0.008 1.141,0.158 1.513,-0.334 1.422,-1.446 -0.086,-1.053 -0.016,-2.118 -0.017,-3.177 -0.002,-45.169 0.031,-90.338 -0.03,-135.507 -0.018,-12.892 -2.373,-25.371 -7.543,-37.2411 -1.412,-3.2429 -3.134,-6.332 -4.815,-9.448 -2.394,-4.4387 -5.157,-8.586 -8.157,-12.5918 C 199.293,64.693 191.39,56.807 182.93,49.459 174.213,41.8879 164.906,35.0988 155.275,28.7488 142.052,20.0301 128.312,12.1961 114.274,4.87383 113.525,4.48398 113.004,4.52109 112.275,4.90313 94.8109,14.0379 77.7637,23.8641 61.7176,35.3488 58.227,37.848 54.807,40.4488 51.4148,43.0809 42.227,50.2102 33.7344,58.093 26.0871,66.8609 21.0395,72.648 16.5613,78.8469 12.7023,85.5051 7.01563,95.318 3.22852,105.806 1.37383,116.969 c -0.987111,5.943 -1.36133,11.956 -1.3589862,17.993 0.0175781,44.506 0.0054687,89.012 0.0242187,133.519 7.813e-4,1.491 -0.2128905,3.704 0.3515625,4.358 0.494922,0.445 2.783205,0.234 4.230465,0.234 36.29371,0.009 72.58751,0.007 108.88191,0.009"
       style="fill:#999999;fill-opacity:1;fill-rule:nonzero;stroke:none;stroke-width:0.1"
       id="path14" /><path
       d="m 113.467,268.806 c 35.269,0 70.538,0 105.806,-10e-4 0.478,0 0.955,-0.013 1.433,-0.015 0.586,-0.003 0.874,-0.331 0.912,-0.88 0.033,-0.475 0.023,-0.954 0.023,-1.431 -0.001,-43.183 0.015,-86.365 -0.019,-129.547 -0.007,-8.584 -0.572,-17.114 -2.634,-25.516 -2.156,-8.788 -5.498,-17.043 -10.207,-24.7629 -2.913,-4.7769 -6.133,-9.334 -9.669,-13.659 C 189.45,61.1801 177.979,51.3148 165.813,42.1949 149.72,30.1301 132.427,20.0141 114.725,10.5488 113.727,10.0172 112.974,9.95703 111.948,10.502 95.368,19.323 79.1891,28.8039 63.9539,39.8172 59.4867,43.0469 55.0973,46.3949 50.8828,49.957 44.9715,54.9551 39.1461,60.0371 33.8496,65.7082 27.6895,72.302 22.2469,79.4211 17.5387,87.118 12.4852,95.3801 9.0832,104.293 7.04492,113.72 c -1.01953,4.716 -1.71211,9.507 -1.80547,14.35 -0.63789,33.012 -0.13398,66.029 -0.27539,99.044 -0.05586,13.098 -0.01015,26.196 -0.01093,39.293 0,0.342 0.02226,0.684 -0.00547,1.023 -0.09024,1.1 0.47656,1.426 1.48476,1.39 1.29453,-0.047 2.5918,-0.013 3.88828,-0.013 34.3816,0 68.7641,0 103.1463,-0.001"
       style="fill:#cccccc;fill-opacity:1;fill-rule:nonzero;stroke:none;stroke-width:0.1"
       id="path16" /><g
       aria-label="?"
       transform="matrix(1,0,0,-1,-12.319555,510.66504)"
       id="text901"
       style="font-style:normal;font-weight:normal;font-size:144px;line-height:1.25;font-family:sans-serif;white-space:pre;shape-inside:url(#rect903);fill:#999999;fill-opacity:1;stroke:none"><path
         d="m 176.35156,321.30128 q 0,9.47265 -4.29687,16.99218 -4.19922,7.51953 -15.82032,15.82032 l -7.42187,5.37109 q -6.64063,4.78516 -9.96094,9.66797 -3.22265,4.88281 -3.51562,10.74219 h -26.07422 q 0.58594,-9.96094 5.56641,-17.77344 5.07812,-7.8125 14.84374,-14.64844 10.44922,-7.22656 14.7461,-12.69531 4.29687,-5.56641 4.29687,-12.30469 0,-8.59375 -5.66406,-13.57422 -5.56641,-4.98047 -15.91797,-4.98047 -9.86328,0 -16.60156,5.76172 -6.64062,5.76172 -7.8125,15.23438 l -27.832031,-1.17188 q 2.636718,-19.82422 16.308593,-30.85937 13.671878,-11.03516 35.546878,-11.03516 23.14453,0 36.32812,10.54688 13.28125,10.44921 13.28125,28.90625 z M 108.48047,421.49659 V 395.1294 h 28.22265 v 26.36719 z"
         style="font-style:normal;font-variant:normal;font-weight:bold;font-stretch:normal;font-size:200px;font-family:'Liberation Sans';-inkscape-font-specification:'Liberation Sans Bold';fill:#999999"
         id="path839" /></g></g></svg>
