<?xml version="1.0" encoding="UTF-8" standalone="no"?>
<svg
   xmlns:dc="http://purl.org/dc/elements/1.1/"
   xmlns:cc="http://creativecommons.org/ns#"
   xmlns:rdf="http://www.w3.org/1999/02/22-rdf-syntax-ns#"
   xmlns:svg="http://www.w3.org/2000/svg"
   xmlns="http://www.w3.org/2000/svg"
   xmlns:sodipodi="http://sodipodi.sourceforge.net/DTD/sodipodi-0.dtd"
   xmlns:inkscape="http://www.inkscape.org/namespaces/inkscape"
   version="1.1"
   x="0px"
   y="0px"
   viewBox="0 0 512 512"
   xml:space="preserve"
   id="svg12"
   sodipodi:docname="curling-stone.svg"
   width="512"
   height="512"
   inkscape:version="1.0.1 (3bc2e813f5, 2020-09-07)"><metadata
     id="metadata18"><rdf:RDF><cc:Work
         rdf:about=""><dc:format>image/svg+xml</dc:format><dc:type
           rdf:resource="http://purl.org/dc/dcmitype/StillImage" /><dc:title></dc:title></cc:Work></rdf:RDF></metadata><defs
     id="defs16" /><sodipodi:namedview
     pagecolor="#ffffff"
     bordercolor="#666666"
     borderopacity="1"
     objecttolerance="10"
     gridtolerance="10"
     guidetolerance="10"
     inkscape:pageopacity="0"
     inkscape:pageshadow="2"
     inkscape:window-width="1920"
     inkscape:window-height="1136"
     id="namedview14"
     showgrid="false"
     inkscape:zoom="1.1578205"
     inkscape:cx="161.52477"
     inkscape:cy="345.52507"
     inkscape:window-x="0"
     inkscape:window-y="27"
     inkscape:window-maximized="1"
     inkscape:current-layer="svg12"
     inkscape:document-rotation="0" /><g
     id="g6"
     transform="matrix(32,0,0,32,0,-16)"><path
       d="M 14,7 H 13 L 11.553,4.106 C 11.214,3.428 10.521,3 9.764,3 H 4 C 3.448,3 3,3.448 3,4 3,4.552 3.448,5 4,5 H 9 V 7 H 2 C 0.897,7 0,7.897 0,9 V 9.5 H 16 V 9 C 16,7.897 15.103,7 14,7 Z"
       id="path2" /><path
       d="m 0,12 c 0,1.103 0.897,2 2,2 h 12 c 1.103,0 2,-0.897 2,-2 V 11.5 H 0 Z"
       id="path4" /></g></svg>
