<?xml version="1.0" encoding="UTF-8" standalone="no"?>
<svg
   xmlns:dc="http://purl.org/dc/elements/1.1/"
   xmlns:cc="http://creativecommons.org/ns#"
   xmlns:rdf="http://www.w3.org/1999/02/22-rdf-syntax-ns#"
   xmlns:svg="http://www.w3.org/2000/svg"
   xmlns="http://www.w3.org/2000/svg"
   xmlns:sodipodi="http://sodipodi.sourceforge.net/DTD/sodipodi-0.dtd"
   xmlns:inkscape="http://www.inkscape.org/namespaces/inkscape"
   viewBox="0 0 510.87176 512"
   x="0px"
   y="0px"
   version="1.1"
   id="svg14"
   sodipodi:docname="lacrosse.svg"
   width="510.87177"
   height="512"
   inkscape:version="1.0.1 (3bc2e813f5, 2020-09-07)">
  <metadata
     id="metadata20">
    <rdf:RDF>
      <cc:Work
         rdf:about="">
        <dc:format>image/svg+xml</dc:format>
        <dc:type
           rdf:resource="http://purl.org/dc/dcmitype/StillImage" />
      </cc:Work>
    </rdf:RDF>
  </metadata>
  <defs
     id="defs18" />
  <sodipodi:namedview
     pagecolor="#ffffff"
     bordercolor="#666666"
     borderopacity="1"
     objecttolerance="10"
     gridtolerance="10"
     guidetolerance="10"
     inkscape:pageopacity="0"
     inkscape:pageshadow="2"
     inkscape:window-width="1920"
     inkscape:window-height="1136"
     id="namedview16"
     showgrid="false"
     inkscape:zoom="0.41249143"
     inkscape:cx="-128.09676"
     inkscape:cy="809.87353"
     inkscape:window-x="0"
     inkscape:window-y="27"
     inkscape:window-maximized="1"
     inkscape:current-layer="svg14"
     inkscape:document-rotation="0" />
  <title
     id="title2">Artboard 27</title>
  <g
     id="g8"
     transform="matrix(6.7230932,0,0,6.7230932,-67.279192,-63.198965)">
    <path
       d="M 81.2253,14.1133 A 15.9549,15.9549 0 0 0 65.8266,9.93 15.6872,15.6872 0 0 0 54.553,20.879 c -0.207,0.7149 -0.3945,1.4219 -0.5781,2.1172 -0.8633,3.2306 -1.6055,6.0236 -3.7657,8.1837 -2.9419,2.942 -4.7688,7.8361 -1.2805,12.5971 L 10.611,82.0947 a 2,2 0 1 0 2.8282,2.8282 l 38.302,-38.3021 a 9.111,9.111 0 0 0 5.4369,1.9266 10.3808,10.3808 0 0 0 7.172,-3.2227 c 2.164,-2.1641 4.9531,-2.9063 8.1837,-3.7657 l 1.8555,-0.5039 A 15.7722,15.7722 0 0 0 85.4441,29.7307 16.1083,16.1083 0 0 0 81.2253,14.1133 Z"
       id="path4" />
    <circle
       cx="69.978996"
       cy="75.555603"
       r="10.0001"
       id="circle6" />
  </g>
</svg>
