<?xml version="1.0" encoding="UTF-8" standalone="no"?>
<svg
   xmlns:dc="http://purl.org/dc/elements/1.1/"
   xmlns:cc="http://creativecommons.org/ns#"
   xmlns:rdf="http://www.w3.org/1999/02/22-rdf-syntax-ns#"
   xmlns:svg="http://www.w3.org/2000/svg"
   xmlns="http://www.w3.org/2000/svg"
   xmlns:sodipodi="http://sodipodi.sourceforge.net/DTD/sodipodi-0.dtd"
   xmlns:inkscape="http://www.inkscape.org/namespaces/inkscape"
   enable-background="new 0 0 24 24"
   height="512"
   viewBox="0 0 398.22223 512"
   width="398.22223"
   fill="#000000"
   version="1.1"
   id="svg14"
   sodipodi:docname="sports_mma_black_24dp.svg"
   inkscape:version="1.0.1 (3bc2e813f5, 2020-09-07)">
  <metadata
     id="metadata20">
    <rdf:RDF>
      <cc:Work
         rdf:about="">
        <dc:format>image/svg+xml</dc:format>
        <dc:type
           rdf:resource="http://purl.org/dc/dcmitype/StillImage" />
      </cc:Work>
    </rdf:RDF>
  </metadata>
  <defs
     id="defs18" />
  <sodipodi:namedview
     pagecolor="#ffffff"
     bordercolor="#666666"
     borderopacity="1"
     objecttolerance="10"
     gridtolerance="10"
     guidetolerance="10"
     inkscape:pageopacity="0"
     inkscape:pageshadow="2"
     inkscape:window-width="1920"
     inkscape:window-height="1136"
     id="namedview16"
     showgrid="false"
     inkscape:zoom="0.88601795"
     inkscape:cx="-201.29758"
     inkscape:cy="448.15825"
     inkscape:window-x="0"
     inkscape:window-y="27"
     inkscape:window-maximized="1"
     inkscape:current-layer="svg14" />
  <g
     id="g12"
     transform="matrix(28.444444,0,0,28.444444,-142.22222,-85.333332)">
    <g
       id="g10">
      <path
         d="m 7,20 c 0,0.55 0.45,1 1,1 h 8 c 0.55,0 1,-0.45 1,-1 V 17 H 7 Z"
         id="path6" />
      <path
         d="M 18,7 C 17.45,7 17,7.45 17,8 V 5 C 17,3.9 16.1,3 15,3 H 7 C 5.9,3 5,3.9 5,5 v 5.8 c 0,0.13 0.01,0.26 0.04,0.39 l 0.8,4 c 0.09,0.47 0.5,0.8 0.98,0.8 h 10.36 c 0.45,0 0.89,-0.36 0.98,-0.8 l 0.8,-4 C 18.99,11.06 19,10.93 19,10.8 V 8 C 19,7.45 18.55,7 18,7 Z m -3,3 H 7 V 7 h 8 z"
         id="path8" />
    </g>
  </g>
</svg>
