<?xml version="1.0" encoding="UTF-8" standalone="no"?>
<svg
   xmlns:dc="http://purl.org/dc/elements/1.1/"
   xmlns:cc="http://creativecommons.org/ns#"
   xmlns:rdf="http://www.w3.org/1999/02/22-rdf-syntax-ns#"
   xmlns:svg="http://www.w3.org/2000/svg"
   xmlns="http://www.w3.org/2000/svg"
   xmlns:sodipodi="http://sodipodi.sourceforge.net/DTD/sodipodi-0.dtd"
   xmlns:inkscape="http://www.inkscape.org/namespaces/inkscape"
   enable-background="new 0 0 24 24"
   height="512"
   viewBox="0 0 511.48288 512"
   width="511.48288"
   fill="#000000"
   version="1.1"
   id="svg12"
   sodipodi:docname="sports_rugby_black_24dp.svg"
   inkscape:version="1.0.1 (3bc2e813f5, 2020-09-07)">
  <metadata
     id="metadata18">
    <rdf:RDF>
      <cc:Work
         rdf:about="">
        <dc:format>image/svg+xml</dc:format>
        <dc:type
           rdf:resource="http://purl.org/dc/dcmitype/StillImage" />
      </cc:Work>
    </rdf:RDF>
  </metadata>
  <defs
     id="defs16" />
  <sodipodi:namedview
     pagecolor="#ffffff"
     bordercolor="#666666"
     borderopacity="1"
     objecttolerance="10"
     gridtolerance="10"
     guidetolerance="10"
     inkscape:pageopacity="0"
     inkscape:pageshadow="2"
     inkscape:window-width="1920"
     inkscape:window-height="1136"
     id="namedview14"
     showgrid="false"
     inkscape:zoom="0.68474204"
     inkscape:cx="-44.094362"
     inkscape:cy="483.33361"
     inkscape:window-x="0"
     inkscape:window-y="27"
     inkscape:window-maximized="1"
     inkscape:current-layer="svg12" />
  <g
     id="g4"
     transform="translate(-2.5495555,-2.5400009)">
    <rect
       fill="none"
       height="24"
       width="24"
       id="rect2"
       x="0"
       y="0" />
  </g>
  <g
     id="g10"
     transform="matrix(27.061311,0,0,27.061311,-68.994294,-68.73573)">
    <g
       id="g8">
      <path
         d="M 20.49,3.51 C 19.93,2.95 18.34,2.54 16.33,2.54 13.25,2.54 9.18,3.5 6.35,6.33 1.66,11.03 2.1,19.07 3.51,20.49 c 0.56,0.56 2.15,0.97 4.16,0.97 3.08,0 7.15,-0.96 9.98,-3.79 4.69,-4.7 4.25,-12.74 2.84,-14.16 z M 7.76,7.76 C 10.4,5.12 14.11,4.64 15.79,4.57 13.74,5.51 11.33,7.02 9.18,9.18 7.02,11.34 5.51,13.76 4.56,15.81 4.66,13.33 5.44,10.07 7.76,7.76 Z m 8.48,8.48 c -2.64,2.64 -6.35,3.12 -8.03,3.19 2.05,-0.94 4.46,-2.45 6.61,-4.61 2.16,-2.16 3.67,-4.58 4.62,-6.63 -0.1,2.48 -0.88,5.74 -3.2,8.05 z"
         id="path6" />
    </g>
  </g>
</svg>
