<?xml version="1.0" encoding="UTF-8" standalone="no"?>
<svg
   xmlns:dc="http://purl.org/dc/elements/1.1/"
   xmlns:cc="http://creativecommons.org/ns#"
   xmlns:rdf="http://www.w3.org/1999/02/22-rdf-syntax-ns#"
   xmlns:svg="http://www.w3.org/2000/svg"
   xmlns="http://www.w3.org/2000/svg"
   xmlns:sodipodi="http://sodipodi.sourceforge.net/DTD/sodipodi-0.dtd"
   xmlns:inkscape="http://www.inkscape.org/namespaces/inkscape"
   version="1.1"
   x="0px"
   y="0px"
   viewBox="0 0 511.98679 512"
   enable-background="new 0 0 512 512"
   xml:space="preserve"
   id="svg8"
   sodipodi:docname="tennis-racquet.svg"
   width="511.98679"
   height="512"
   inkscape:version="1.0.1 (3bc2e813f5, 2020-09-07)"><metadata
     id="metadata14"><rdf:RDF><cc:Work
         rdf:about=""><dc:format>image/svg+xml</dc:format><dc:type
           rdf:resource="http://purl.org/dc/dcmitype/StillImage" /></cc:Work></rdf:RDF></metadata><defs
     id="defs12" /><sodipodi:namedview
     pagecolor="#ffffff"
     bordercolor="#666666"
     borderopacity="1"
     objecttolerance="10"
     gridtolerance="10"
     guidetolerance="10"
     inkscape:pageopacity="0"
     inkscape:pageshadow="2"
     inkscape:window-width="1920"
     inkscape:window-height="1136"
     id="namedview10"
     showgrid="false"
     inkscape:zoom="0.76166085"
     inkscape:cx="42.472414"
     inkscape:cy="333.80455"
     inkscape:window-x="0"
     inkscape:window-y="27"
     inkscape:window-maximized="1"
     inkscape:current-layer="svg8" /><path
     d="M 460.80204,51.197955 C 385.9759,-23.628186 256.25905,-15.435543 171.60174,69.22177 c -58.16777,58.16777 -80.151361,137.63641 -63.90262,205.77189 6.8272,28.94734 -1.63853,59.39666 -22.802855,80.42445 L 7.4757869,433.11167 c -9.9677159,9.96772 -9.9677159,26.21646 0,36.18418 l 35.2283661,35.22836 c 9.967715,9.96772 26.216458,9.96772 36.184174,0 l 77.557023,-77.55702 c 21.02778,-21.02778 51.47711,-29.63006 80.42445,-22.66631 68.27202,16.24874 147.60412,-5.73485 205.77188,-63.90262 84.79386,-84.79386 92.9865,-214.51071 18.16036,-289.200305 z m -67.72585,13.517861 c 11.4697,5.73485 22.25668,13.108229 31.67822,22.529769 9.42154,9.421539 16.79492,20.071975 22.52977,31.678215 l -49.70203,49.70204 -54.20799,-54.20799 z m -31.67822,140.094204 -54.20799,54.20799 -54.20799,-54.20799 54.20799,-54.20799 z M 334.49879,50.924866 307.18998,78.233677 286.84492,57.888613 c 15.83911,-4.642498 31.95131,-7.100291 47.65387,-6.963747 z M 207.78591,105.40594 c 9.285,-9.284992 19.38926,-17.341091 29.90315,-24.304838 l 33.31675,33.316748 -54.20799,54.20799 -33.31675,-33.31675 c 6.96375,-10.51389 14.8833,-20.61815 24.30484,-29.90315 z m -54.48107,126.71289 c -0.13655,-15.70257 2.1847,-31.81477 6.96374,-47.65388 l 20.34507,20.34507 z m 67.99893,112.78539 c -11.4697,-5.73486 -22.25668,-13.10823 -31.67822,-22.52977 -9.42154,-9.42154 -16.79492,-20.07198 -22.52977,-31.67822 l 49.70204,-49.70204 54.20799,54.20799 z m 58.5774,13.79094 27.30881,-27.30881 20.34507,20.34507 c -15.83911,4.6425 -31.95131,7.10029 -47.65388,6.96374 z m 126.71288,-54.48107 c -9.28499,9.28499 -19.38925,17.34109 -29.90314,24.30484 l -33.31675,-33.31675 54.20799,-54.20799 33.31674,33.31675 c -6.96374,10.51389 -14.8833,20.61815 -24.30484,29.90315 z m 27.17227,-99.40407 27.30881,-27.30881 c 0.13654,15.70256 -2.1847,31.81476 -6.96375,47.65387 z"
     id="path2"
     style="stroke-width:1.36544" /></svg>
